<svg xmlns="http://www.w3.org/2000/svg" xmlns:xlink="http://www.w3.org/1999/xlink" width="1152" height="1152" font-family="sans-serif" font-size="10" text-anchor="middle" version="1.1" viewBox="-576 -576 1152 1152" style="max-width:100%;height:intrinsic"><a><path fill="#ccc" fill-opacity=".6" d="M1.1695376931857222e-14,-191A191,191,0,1,1,-1.1695376931857222e-14,191A191,191,0,1,1,1.1695376931857222e-14,-191Z"/><text dy=".32em">Rave Mandala</text></a><a><path fill="#6E40AA" fill-opacity=".6" d="M0.49999974882658776,-382.9996736294317A383,383,0,0,1,382.9996736294317,-0.49999974882647025L191.99934895788363,-0.4999997488265127A192,192,0,0,0,0.4999997488265492,-191.99934895788363Z"/><text dy=".32em" transform="rotate(-44.99999999999999) translate(288,0) rotate(0)">Quarter of Initiation</text></a><a><path fill="#FF5E63" fill-opacity=".6" d="M382.9996736294317,0.49999974882664033A383,383,0,0,1,0.4999997488264177,382.9996736294317L0.4999997488264639,191.99934895788363A192,192,0,0,0,191.99934895788363,0.499999748826598Z"/><text dy=".32em" transform="rotate(45.00000000000003) translate(288,0) rotate(0)">Quarter of Civilization</text></a><a><path fill="#AFF05B" fill-opacity=".6" d="M-0.49999974882671094,382.9996736294317A383,383,0,0,1,-382.9996736294317,0.499999748826186L-191.99934895788363,0.4999997488263904A192,192,0,0,0,-0.4999997488266109,191.99934895788363Z"/><text dy=".32em" transform="rotate(135.00000000000006) translate(288,0) rotate(180)">Quarter of Duality</text></a><a><path fill="#1AC7C2" fill-opacity=".6" d="M-382.9996736294317,-0.49999974882677256A383,383,0,0,1,-0.4999997488262095,-382.9996736294317L-0.49999974882640214,-191.99934895788363A192,192,0,0,0,-191.99934895788363,-0.4999997488266844Z"/><text dy=".32em" transform="rotate(225.00000000000006) translate(288,0) rotate(180)">Quarter of Mutation</text></a><a><path fill="#6E40AA" fill-opacity=".6" d="M0.4999997488265562,-574.9997826088729A575,575,0,0,1,55.86224226806875,-572.2800100377293L37.14095786657653,-382.19961963449566A384,384,0,0,0,0.499999748826598,-383.99967447935575Z"/><text dy=".32em" transform="rotate(-87.1875) translate(480,0) rotate(0)">13</text></a><a><path fill="#6E40AA" fill-opacity=".6" d="M56.85742649481292,-572.1819929466384A575,575,0,0,1,111.68650035451444,-564.0488681298466L74.42422775441155,-376.7187735209907A384,384,0,0,0,38.136142093320814,-382.10160254340474Z"/><text dy=".32em" transform="rotate(-81.5625) translate(480,0) rotate(0)">49</text></a><a><path fill="#6E40AA" fill-opacity=".6" d="M112.66728514222316,-563.8537779058335A575,575,0,0,1,166.43515638849473,-550.3856272813974L110.99075164455033,-367.60991968304904A384,384,0,0,0,75.40501254212037,-376.52368329697754Z"/><text dy=".32em" transform="rotate(-75.9375) translate(480,0) rotate(0)">30</text></a><a><path fill="#6E40AA" fill-opacity=".6" d="M167.39209624351088,-550.0953427499666A575,575,0,0,1,219.5809508837424,-531.4218719708397L146.4883739226354,-354.9607813625361A384,384,0,0,0,111.94769149956657,-367.3196351516181Z"/><text dy=".32em" transform="rotate(-70.3125) translate(480,0) rotate(0)">55</text></a><a><path fill="#6E40AA" fill-opacity=".6" d="M220.50482995214557,-531.0391887307144A575,575,0,0,1,270.6120607868219,-507.34023352845713L180.5752330811547,-338.8931766762008A384,384,0,0,0,147.41225299103868,-354.57809812241084Z"/><text dy=".32em" transform="rotate(-64.6875) translate(480,0) rotate(0)">37</text></a><a><path fill="#6E40AA" fill-opacity=".6" d="M271.4939816081398,-506.86883702843585A575,575,0,0,1,319.037028612924,-478.3726312968127L212.92305403263893,-319.56184544061875A384,384,0,0,0,181.45715390247267,-338.4217801761795Z"/><text dy=".32em" transform="rotate(-59.0625) translate(480,0) rotate(0)">63</text></a><a><path fill="#6E40AA" fill-opacity=".6" d="M319.86849780754045,-477.817061342882A575,575,0,0,1,364.38949545010354,-444.7980391206992L243.22030957820766,-297.1529589431692A384,384,0,0,0,213.75452322725533,-319.00627548668814Z"/><text dy=".32em" transform="rotate(-53.43749999999999) translate(480,0) rotate(0)">22</text></a><a><path fill="#6E40AA" fill-opacity=".6" d="M365.1625055151469,-444.16364615522093A575,575,0,0,1,406.2326922505379,-406.93979867651154L271.1752205847925,-271.88232701076606A384,384,0,0,0,243.99331964325103,-296.5185659776911Z"/><text dy=".32em" transform="rotate(-47.812499999999986) translate(480,0) rotate(0)">36</text></a><a><path fill="#6E40AA" fill-opacity=".6" d="M406.93979867651166,-406.2326922505378A575,575,0,0,1,444.16364615522104,-365.1625055151468L296.51856597769114,-243.9933196432509A384,384,0,0,0,271.8823270107662,-271.17522058479244Z"/><text dy=".32em" transform="rotate(-42.18749999999999) translate(480,0) rotate(0)">25</text></a><a><path fill="#6E40AA" fill-opacity=".6" d="M444.79803912069923,-364.3894954501034A575,575,0,0,1,477.81706134288214,-319.86849780754034L319.0062754866882,-213.75452322725522A384,384,0,0,0,297.1529589431693,-243.22030957820755Z"/><text dy=".32em" transform="rotate(-36.562499999999986) translate(480,0) rotate(0)">17</text></a><a><path fill="#6E40AA" fill-opacity=".6" d="M478.37263129681276,-319.0370286129239A575,575,0,0,1,506.8688370284359,-271.4939816081397L338.42178017617954,-181.45715390247256A384,384,0,0,0,319.5618454406188,-212.92305403263885Z"/><text dy=".32em" transform="rotate(-30.937499999999993) translate(480,0) rotate(0)">21</text></a><a><path fill="#6E40AA" fill-opacity=".6" d="M507.3402335284572,-270.6120607868217A575,575,0,0,1,531.0391887307145,-220.50482995214549L354.5780981224109,-147.4122529910386A384,384,0,0,0,338.8931766762009,-180.5752330811546Z"/><text dy=".32em" transform="rotate(-25.312499999999986) translate(480,0) rotate(0)">51</text></a><a><path fill="#6E40AA" fill-opacity=".6" d="M531.4218719708397,-219.5809508837422A575,575,0,0,1,550.0953427499666,-167.39209624351062L367.31963515161823,-111.94769149956636A384,384,0,0,0,354.9607813625361,-146.48837392263528Z"/><text dy=".32em" transform="rotate(-19.687499999999986) translate(480,0) rotate(0)">42</text></a><a><path fill="#6E40AA" fill-opacity=".6" d="M550.3856272813974,-166.43515638849442A575,575,0,0,1,563.8537779058335,-112.66728514222291L376.5236832969776,-75.40501254212018A384,384,0,0,0,367.60991968304904,-110.99075164455017Z"/><text dy=".32em" transform="rotate(-14.062499999999972) translate(480,0) rotate(0)">3</text></a><a><path fill="#6E40AA" fill-opacity=".6" d="M564.0488681298466,-111.68650035451414A575,575,0,0,1,572.1819929466384,-56.85742649481254L382.10160254340474,-38.136142093320515A384,384,0,0,0,376.71877352099074,-74.42422775441139Z"/><text dy=".32em" transform="rotate(-8.437499999999957) translate(480,0) rotate(0)">27</text></a><a><path fill="#6E40AA" fill-opacity=".6" d="M572.2800100377294,-55.8622422680683A575,575,0,0,1,574.9997826088729,-0.4999997488261723L383.99967447935575,-0.49999974882629955A384,384,0,0,0,382.1996196344957,-37.140957866576265Z"/><text dy=".32em" transform="rotate(-2.8124999999999716) translate(480,0) rotate(0)">24</text></a><a><path fill="#FF5E63" fill-opacity=".6" d="M574.9997826088729,0.499999748826683A575,575,0,0,1,572.2800100377293,55.86224226806881L382.19961963449566,37.140957866576606A384,384,0,0,0,383.99967447935575,0.4999997488266406Z"/><text dy=".32em" transform="rotate(2.812500000000014) translate(480,0) rotate(0)">2</text></a><a><path fill="#FF5E63" fill-opacity=".6" d="M572.1819929466384,56.85742649481305A575,575,0,0,1,564.0488681298466,111.68650035451464L376.7187735209907,74.42422775441172A384,384,0,0,0,382.10160254340474,38.13614209332085Z"/><text dy=".32em" transform="rotate(8.437500000000014) translate(480,0) rotate(0)">23</text></a><a><path fill="#FF5E63" fill-opacity=".6" d="M563.8537779058335,112.66728514222342A575,575,0,0,1,550.3856272813973,166.43515638849493L367.609919683049,110.9907516445505A384,384,0,0,0,376.52368329697754,75.4050125421205Z"/><text dy=".32em" transform="rotate(14.062500000000028) translate(480,0) rotate(0)">8</text></a><a><path fill="#FF5E63" fill-opacity=".6" d="M550.0953427499664,167.39209624351113A575,575,0,0,1,531.4218719708396,219.58095088374267L354.960781362536,146.48837392263562A384,384,0,0,0,367.3196351516181,111.9476914995667Z"/><text dy=".32em" transform="rotate(19.68750000000003) translate(480,0) rotate(0)">20</text></a><a><path fill="#FF5E63" fill-opacity=".6" d="M531.0391887307143,220.50482995214594A575,575,0,0,1,507.3402335284571,270.61206078682204L338.8931766762007,180.57523308115483A384,384,0,0,0,354.5780981224108,147.41225299103888Z"/><text dy=".32em" transform="rotate(25.312500000000043) translate(480,0) rotate(0)">16</text></a><a><path fill="#FF5E63" fill-opacity=".6" d="M506.86883702843573,271.49398160814A575,575,0,0,1,478.3726312968125,319.0370286129243L319.5618454406187,212.92305403263907A384,384,0,0,0,338.4217801761794,181.45715390247278Z"/><text dy=".32em" transform="rotate(30.937500000000057) translate(480,0) rotate(0)">35</text></a><a><path fill="#FF5E63" fill-opacity=".6" d="M477.81706134288186,319.86849780754073A575,575,0,0,1,444.7980391206989,364.38949545010377L297.1529589431691,243.22030957820783A384,384,0,0,0,319.006275486688,213.7545232272555Z"/><text dy=".32em" transform="rotate(36.56250000000003) translate(480,0) rotate(0)">45</text></a><a><path fill="#FF5E63" fill-opacity=".6" d="M444.16364615522076,365.16250551514713A575,575,0,0,1,406.93979867651126,406.23269225053826L271.8823270107659,271.17522058479267A384,384,0,0,0,296.51856597769097,243.99331964325123Z"/><text dy=".32em" transform="rotate(42.18750000000006) translate(480,0) rotate(0)">12</text></a><a><path fill="#FF5E63" fill-opacity=".6" d="M406.2326922505375,406.93979867651194A575,575,0,0,1,365.1625055151464,444.1636461552214L243.99331964325071,296.5185659776913A384,384,0,0,0,271.1752205847922,271.88232701076635Z"/><text dy=".32em" transform="rotate(47.81250000000003) translate(480,0) rotate(0)">15</text></a><a><path fill="#FF5E63" fill-opacity=".6" d="M364.389495450103,444.7980391206995A575,575,0,0,1,319.8684978075399,477.8170613428824L213.75452322725494,319.0062754866884A384,384,0,0,0,243.22030957820732,297.15295894316955Z"/><text dy=".32em" transform="rotate(53.43750000000006) translate(480,0) rotate(0)">52</text></a><a><path fill="#FF5E63" fill-opacity=".6" d="M319.03702861292345,478.37263129681304A575,575,0,0,1,271.4939816081391,506.8688370284362L181.45715390247221,338.4217801761797A384,384,0,0,0,212.9230540326385,319.56184544061904Z"/><text dy=".32em" transform="rotate(59.06250000000006) translate(480,0) rotate(0)">39</text></a><a><path fill="#FF5E63" fill-opacity=".6" d="M270.6120607868212,507.34023352845753A575,575,0,0,1,220.5048299521449,531.0391887307147L147.41225299103823,354.578098122411A384,384,0,0,0,180.57523308115424,338.89317667620105Z"/><text dy=".32em" transform="rotate(64.68750000000009) translate(480,0) rotate(0)">53</text></a><a><path fill="#FF5E63" fill-opacity=".6" d="M219.58095088374168,531.42187197084A575,575,0,0,1,167.39209624351,550.0953427499668L111.94769149956599,367.31963515161834A384,384,0,0,0,146.4883739226349,354.9607813625363Z"/><text dy=".32em" transform="rotate(70.31250000000006) translate(480,0) rotate(0)">62</text></a><a><path fill="#FF5E63" fill-opacity=".6" d="M166.43515638849388,550.3856272813977A575,575,0,0,1,112.66728514222228,563.8537779058337L75.40501254211979,376.5236832969777A384,384,0,0,0,110.99075164454975,367.6099196830492Z"/><text dy=".32em" transform="rotate(75.93750000000009) translate(480,0) rotate(0)">56</text></a><a><path fill="#FF5E63" fill-opacity=".6" d="M111.68650035451356,564.0488681298467A575,575,0,0,1,56.85742649481191,572.1819929466385L38.13614209332013,382.1016025434048A384,384,0,0,0,74.42422775441096,376.7187735209908Z"/><text dy=".32em" transform="rotate(81.56250000000009) translate(480,0) rotate(0)">31</text></a><a><path fill="#FF5E63" fill-opacity=".6" d="M55.86224226806774,572.2800100377294A575,575,0,0,1,0.4999997488255348,574.9997826088729L0.49999974882591586,383.99967447935575A384,384,0,0,0,37.140957866575846,382.1996196344958Z"/><text dy=".32em" transform="rotate(87.18750000000011) translate(480,0) rotate(0)">33</text></a><a><path fill="#AFF05B" fill-opacity=".6" d="M-0.49999974882674103,574.9997826088729A575,575,0,0,1,-55.86224226806893,572.2800100377293L-37.14095786657665,382.19961963449566A384,384,0,0,0,-0.4999997488267215,383.99967447935575Z"/><text dy=".32em" transform="rotate(92.81250000000006) translate(480,0) rotate(180)">7</text></a><a><path fill="#AFF05B" fill-opacity=".6" d="M-56.857426494813105,572.1819929466384A575,575,0,0,1,-111.68650035451476,564.0488681298465L-74.42422775441176,376.7187735209907A384,384,0,0,0,-38.136142093320935,382.10160254340474Z"/><text dy=".32em" transform="rotate(98.43750000000003) translate(480,0) rotate(180)">4</text></a><a><path fill="#AFF05B" fill-opacity=".6" d="M-112.66728514222349,563.8537779058333A575,575,0,0,1,-166.43515638849502,550.3856272813973L-110.99075164455053,367.60991968304893A384,384,0,0,0,-75.40501254212059,376.52368329697754Z"/><text dy=".32em" transform="rotate(104.06250000000003) translate(480,0) rotate(180)">29</text></a><a><path fill="#AFF05B" fill-opacity=".6" d="M-167.39209624351116,550.0953427499664A575,575,0,0,1,-219.5809508837428,531.4218719708396L-146.48837392263565,354.960781362536A384,384,0,0,0,-111.94769149956676,367.31963515161806Z"/><text dy=".32em" transform="rotate(109.68750000000006) translate(480,0) rotate(180)">59</text></a><a><path fill="#AFF05B" fill-opacity=".6" d="M-220.504829952146,531.0391887307143A575,575,0,0,1,-270.61206078682216,507.340233528457L-180.57523308115495,338.8931766762007A384,384,0,0,0,-147.41225299103897,354.5780981224107Z"/><text dy=".32em" transform="rotate(115.31250000000006) translate(480,0) rotate(180)">40</text></a><a><path fill="#AFF05B" fill-opacity=".6" d="M-271.49398160814025,506.8688370284356A575,575,0,0,1,-319.0370286129244,478.3726312968124L-212.9230540326392,319.56184544061864A384,384,0,0,0,-181.45715390247292,338.4217801761793Z"/><text dy=".32em" transform="rotate(120.93750000000003) translate(480,0) rotate(180)">64</text></a><a><path fill="#AFF05B" fill-opacity=".6" d="M-319.8684978075409,477.81706134288174A575,575,0,0,1,-364.38949545010394,444.79803912069883L-243.22030957820795,297.15295894316904A384,384,0,0,0,-213.75452322725562,319.00627548668797Z"/><text dy=".32em" transform="rotate(126.56250000000009) translate(480,0) rotate(180)">47</text></a><a><path fill="#AFF05B" fill-opacity=".6" d="M-365.1625055151474,444.16364615522053A575,575,0,0,1,-406.2326922505383,406.93979867651115L-271.1752205847928,271.8823270107658A384,384,0,0,0,-243.9933196432513,296.51856597769086Z"/><text dy=".32em" transform="rotate(132.18750000000006) translate(480,0) rotate(180)">6</text></a><a><path fill="#AFF05B" fill-opacity=".6" d="M-406.93979867651217,406.23269225053735A575,575,0,0,1,-444.16364615522144,365.1625055151463L-296.5185659776914,243.99331964325057A384,384,0,0,0,-271.8823270107664,271.1752205847921Z"/><text dy=".32em" transform="rotate(137.81250000000009) translate(480,0) rotate(180)">46</text></a><a><path fill="#AFF05B" fill-opacity=".6" d="M-444.79803912069974,364.38949545010274A575,575,0,0,1,-477.81706134288237,319.86849780753994L-319.0062754866884,213.75452322725494A384,384,0,0,0,-297.1529589431696,243.2203095782072Z"/><text dy=".32em" transform="rotate(143.43750000000009) translate(480,0) rotate(180)">18</text></a><a><path fill="#AFF05B" fill-opacity=".6" d="M-478.37263129681304,319.0370286129234A575,575,0,0,1,-506.868837028436,271.49398160813945L-338.4217801761796,181.45715390247238A384,384,0,0,0,-319.56184544061904,212.92305403263856Z"/><text dy=".32em" transform="rotate(149.06250000000006) translate(480,0) rotate(180)">48</text></a><a><path fill="#AFF05B" fill-opacity=".6" d="M-507.3402335284574,270.61206078682136A575,575,0,0,1,-531.0391887307145,220.5048299521455L-354.5780981224109,147.41225299103857A384,384,0,0,0,-338.89317667620094,180.5752330811544Z"/><text dy=".32em" transform="rotate(154.68750000000003) translate(480,0) rotate(180)">57</text></a><a><path fill="#AFF05B" fill-opacity=".6" d="M-531.4218719708398,219.58095088374205A575,575,0,0,1,-550.0953427499666,167.3920962435109L-367.3196351516182,111.9476914995665A384,384,0,0,0,-354.9607813625362,146.48837392263525Z"/><text dy=".32em" transform="rotate(160.31250000000003) translate(480,0) rotate(180)">32</text></a><a><path fill="#AFF05B" fill-opacity=".6" d="M-550.3856272813974,166.4351563884945A575,575,0,0,1,-563.8537779058335,112.66728514222345L-376.52368329697754,75.40501254212049A384,384,0,0,0,-367.60991968304904,110.99075164455026Z"/><text dy=".32em" transform="rotate(165.9375) translate(480,0) rotate(180)">50</text></a><a><path fill="#AFF05B" fill-opacity=".6" d="M-564.0488681298466,111.6865003545145A575,575,0,0,1,-572.1819929466384,56.857426494813346L-382.10160254340474,38.136142093321A384,384,0,0,0,-376.7187735209907,74.42422775441165Z"/><text dy=".32em" transform="rotate(171.56249999999994) translate(480,0) rotate(180)">28</text></a><a><path fill="#AFF05B" fill-opacity=".6" d="M-572.2800100377293,55.86224226806891A575,575,0,0,1,-574.9997826088729,0.49999974882722975L-383.99967447935575,0.4999997488269625A384,384,0,0,0,-382.19961963449566,37.14095786657672Z"/><text dy=".32em" transform="rotate(177.18749999999994) translate(480,0) rotate(180)">44</text></a><a><path fill="#1AC7C2" fill-opacity=".6" d="M-574.9997826088729,-0.49999974882708886A575,575,0,0,1,-572.2800100377293,-55.862242268068776L-382.19961963449566,-37.14095786657663A384,384,0,0,0,-383.99967447935575,-0.49999974882686843Z"/><text dy=".32em" transform="rotate(182.81250000000006) translate(480,0) rotate(180)">1</text></a><a><path fill="#1AC7C2" fill-opacity=".6" d="M-572.1819929466384,-56.857426494813204A575,575,0,0,1,-564.0488681298466,-111.68650035451434L-376.7187735209907,-74.42422775441156A384,384,0,0,0,-382.10160254340474,-38.136142093320906Z"/><text dy=".32em" transform="rotate(188.4375) translate(480,0) rotate(180)">43</text></a><a><path fill="#1AC7C2" fill-opacity=".6" d="M-563.8537779058335,-112.66728514222332A575,575,0,0,1,-550.3856272813974,-166.4351563884944L-367.60991968304904,-110.99075164455017A384,384,0,0,0,-376.52368329697754,-75.40501254212039Z"/><text dy=".32em" transform="rotate(194.0625) translate(480,0) rotate(180)">14</text></a><a><path fill="#1AC7C2" fill-opacity=".6" d="M-550.0953427499666,-167.39209624351076A575,575,0,0,1,-531.4218719708399,-219.58095088374193L-354.9607813625362,-146.48837392263516A384,384,0,0,0,-367.3196351516182,-111.94769149956642Z"/><text dy=".32em" transform="rotate(199.6875) translate(480,0) rotate(180)">34</text></a><a><path fill="#1AC7C2" fill-opacity=".6" d="M-531.0391887307145,-220.5048299521454A575,575,0,0,1,-507.3402335284575,-270.61206078682125L-338.893176676201,-180.57523308115432A384,384,0,0,0,-354.57809812241095,-147.41225299103849Z"/><text dy=".32em" transform="rotate(205.3125) translate(480,0) rotate(180)">9</text></a><a><path fill="#1AC7C2" fill-opacity=".6" d="M-506.8688370284361,-271.49398160813934A575,575,0,0,1,-478.3726312968132,-319.03702861292334L-319.5618454406191,-212.92305403263845A384,384,0,0,0,-338.42178017617965,-181.45715390247233Z"/><text dy=".32em" transform="rotate(210.93749999999994) translate(480,0) rotate(180)">5</text></a><a><path fill="#1AC7C2" fill-opacity=".6" d="M-477.8170613428824,-319.8684978075398A575,575,0,0,1,-444.7980391206998,-364.3894954501027L-297.15295894316966,-243.22030957820715A384,384,0,0,0,-319.0062754866884,-213.75452322725485Z"/><text dy=".32em" transform="rotate(216.56249999999994) translate(480,0) rotate(180)">26</text></a><a><path fill="#1AC7C2" fill-opacity=".6" d="M-444.1636461552215,-365.16250551514617A575,575,0,0,1,-406.9397986765124,-406.232692250537L-271.88232701076663,-271.1752205847919A384,384,0,0,0,-296.5185659776915,-243.99331964325052Z"/><text dy=".32em" transform="rotate(222.1874999999999) translate(480,0) rotate(180)">11</text></a><a><path fill="#1AC7C2" fill-opacity=".6" d="M-406.23269225053866,-406.93979867651086A575,575,0,0,1,-365.1625055151479,-444.1636461552201L-243.99331964325165,-296.51856597769057A384,384,0,0,0,-271.17522058479295,-271.8823270107656Z"/><text dy=".32em" transform="rotate(227.8124999999999) translate(480,0) rotate(180)">10</text></a><a><path fill="#1AC7C2" fill-opacity=".6" d="M-364.38949545010445,-444.7980391206984A575,575,0,0,1,-319.8684978075417,-477.81706134288123L-213.75452322725607,-319.0062754866876A384,384,0,0,0,-243.2203095782083,-297.15295894316876Z"/><text dy=".32em" transform="rotate(233.43749999999983) translate(480,0) rotate(180)">58</text></a><a><path fill="#1AC7C2" fill-opacity=".6" d="M-319.0370286129252,-478.3726312968119A575,575,0,0,1,-271.49398160814127,-506.86883702843505L-181.4571539024736,-338.42178017617897A384,384,0,0,0,-212.9230540326397,-319.5618454406183Z"/><text dy=".32em" transform="rotate(239.06249999999983) translate(480,0) rotate(180)">38</text></a><a><path fill="#1AC7C2" fill-opacity=".6" d="M-270.6120607868232,-507.34023352845645A575,575,0,0,1,-220.50482995214742,-531.0391887307137L-147.41225299103985,-354.5780981224103A384,384,0,0,0,-180.57523308115563,-338.8931766762003Z"/><text dy=".32em" transform="rotate(244.68749999999983) translate(480,0) rotate(180)">54</text></a><a><path fill="#1AC7C2" fill-opacity=".6" d="M-219.58095088374398,-531.421871970839A575,575,0,0,1,-167.3920962435129,-550.095342749966L-111.94769149956784,-367.3196351516177A384,384,0,0,0,-146.48837392263653,-354.9607813625356Z"/><text dy=".32em" transform="rotate(250.31249999999977) translate(480,0) rotate(180)">61</text></a><a><path fill="#1AC7C2" fill-opacity=".6" d="M-166.43515638849652,-550.3856272813969A575,575,0,0,1,-112.6672851422255,-563.853777905833L-75.40501254212185,-376.52368329697725A384,384,0,0,0,-110.99075164455161,-367.60991968304864Z"/><text dy=".32em" transform="rotate(255.93749999999977) translate(480,0) rotate(180)">60</text></a><a><path fill="#1AC7C2" fill-opacity=".6" d="M-111.68650035451651,-564.0488681298461A575,575,0,0,1,-56.857426494815414,-572.1819929466382L-38.136142093322384,-382.10160254340457A384,384,0,0,0,-74.42422775441301,-376.7187735209904Z"/><text dy=".32em" transform="rotate(261.56249999999983) translate(480,0) rotate(180)">41</text></a><a><path fill="#1AC7C2" fill-opacity=".6" d="M-55.862242268070986,-572.2800100377291A575,575,0,0,1,-0.4999997488293077,-574.9997826088729L-0.49999974882835024,-383.99967447935575A384,384,0,0,0,-37.1409578665781,-382.19961963449555Z"/><text dy=".32em" transform="rotate(267.1874999999998) translate(480,0) rotate(180)">19</text></a></svg>